<?xml version="1.0" encoding="UTF-8"?>
<svg xmlns="http://www.w3.org/2000/svg" version="1.1" viewBox="0 0 471.4 505.5">
  <defs>
    <style>
      .cls-1 {
        fill: #676767;
      }

      .cls-2 {
        fill: #fff;
      }

      .cls-3 {
        fill: #dc1c26;
      }

      .cls-4 {
        fill: #6d141e;
      }

      .cls-5 {
        fill: #a2a1a3;
      }

      .cls-6 {
        fill: #383838;
      }

      .cls-7 {
        fill: #6d141c;
      }
    </style>
  </defs>
  <!-- Generator: Adobe Illustrator 28.7.2, SVG Export Plug-In . SVG Version: 1.2.0 Build 154)  -->
  <g>
    <g id="Calque_1">
      <path d="M58.3,206.8l.8,11.9-29.5,38.7-15.9,34.7s-15.2,40.1-4.7,82.1c10.5,42.1,26.9,57.9,41.5,70.2,14.6,12.3,52.1,36,74.1,36.4l22.7-8.5,32.3,17.2,29.3,10.9,38,.4,36.2-9,33-15.5,5.9,2.2,15.5,11.7,28.8-7.4,32.7-18,30.8-25.4,18-25.5,14-31.2,5.6-39.8-1.7-25.3-8.8-27.8-11.4-19.5-17-23-17.2-20.2-7.1-10.3.6-12.8,36.4-18.9-23.1-11.6,5.8-26.4-2.8-15.1-18.4-27.9-24.3-31.8-11.8-8.6-19.9,2.6-26.5,9.5-14.8-6.6-5-5.4-.5-46.4-13.5,10.8-22.1,23.9-28.7-3.3-27.1,2.7-30.6-43.5-2.4,4.8-6.5,46.9-16.1,9.9-12.6-7-14.4-6.4-14.3-1.4-6.7,1.5-17.2,15.5-22.6,22.9-11.2,17.6-3.2,12.8,3.8,42.9-44.1,10.9s11.9,7.4,12,8.2,35.9,19.5,35.9,19.5Z"/>
      <path class="cls-2" d="M323.5,340.3c19.2,40.1,22.1,82.3,15.7,126.5-2.7-2.1-5.1-3.8-7.3-5.7-.4-.4-.4-1.5-.2-2.2,5.8-21.9,4.6-43.9.2-65.7-2.9-14.5-7-28.8-11.1-43-1.2-4.3-1.7-7.5,2.7-9.9h0Z"/>
      <path class="cls-2" d="M132.6,387.9c2.8-15.4,6.2-30.6,11.6-45.3.4-1,.8-2.1,1.3-3.1.1-.3.3-.5.5-.7,3.4.2,3.3,2.2,2.7,4.6-2.9,12.9-6.3,25.6-8.5,38.6-2.4,14-3.8,28.1-5.6,42.2-.3,2.7-1.2,21.6-.5,28.4.3,3.2-.8,4.4-3.4,5.2-.8.2-1.6.7-2.4,1-1.6-5.2,3.6-66.3,4.4-70.9Z"/>
      <path class="cls-2" d="M233.4,349.6c-4.2-3.8-5.5-8.6-7-13.4,0-.3,0-.6-.1-.9-1.9-8.8-1.9-6,5.1-11.7.6-.5,2.1-.3,2.9.1,2,1,3.6,2.6,5.6,3.5,3,1.4,3.3,3.4,2.6,6.3-1.5,6.1-4.1,11.5-9.1,16h0Z"/>
      <path class="cls-2" d="M164.6,369.2c-3.4-8.2-5.8-16.4-5.9-25.3,6.4.8,12.4,1.5,18.5,2.2-.3,3.4-.7,6.8-1.1,10.3,0,.4-.2.8-.5,1.1-3.6,3.9-7.2,7.7-11,11.7h0Z"/>
      <path class="cls-2" d="M288.5,349.1c4.9.4,9.7.8,15.4,1.2-2.8,3.4-5.3,6.4-7.9,9.4s-1.1.5-1.6.4c-4.3-1.3-6.8-6.1-5.9-11h0Z"/>
      <path class="cls-2" d="M264.5,352.9c-4.4-4.9-6.7-9.5-7.3-15.7,4.6,2.1,8.7,3.9,13.6,6.1-2.1,3.2-4,6.1-6.3,9.6h0Z"/>
      <path class="cls-2" d="M209,337.8c-.8,5.4-2.7,9.6-6.4,12.8-.4.4-1.8.2-2.5-.2-.8-.5-1.5-1.4-2.1-2.1-3.5-4.1-3.1-5.4,1.9-7.1,2.8-1,5.6-2.2,9-3.5Z"/>
      <path class="cls-2" d="M463.6,303.4c-4.8-18.7-15.4-34.8-27.3-49.8-8-10.1-16.4-19.9-24.8-29.7-3.8-4.4-5.9-9.1-5.8-15,0-2.4.6-3.6,2.7-4.7,2.8-1.4,5.7-2.8,8.5-4.2,0,0,0,0,0,0,3.1-1.6,26.3-13.2,29.5-14.9,0-.3,0-.6,0-.9-4.2-1.6-22.6-9-26.9-10.7h0c3.8-9.5,4.9-19,5.4-28.6.4-7.4-1-14.2-5.7-20.2-2.2-2.8-4.2-5.9-6.3-8.8-7.9-10.9-15.7-22-23.9-32.8-5.6-7.4-11-15-18.7-20.5-1.2-.9-3.1-1.5-4.7-1.3-15.9,1.4-31.2,5-45.4,12.5-.9.5-2.6.4-3.5-.1-4.3-2.4-8.6-4.9-12.7-7.5-1-.6-1.8-2.2-1.9-3.3-.5-16.3-.9-32.7-1.3-49,0-.4-.3-.9-.6-1.6-1,1-1.8,1.7-2.6,2.5-10.3,10.8-20.7,21.5-30.9,32.4-2.4,2.6-4.7,3.8-8.6,3-15.5-3.4-31.2-3.5-46.9-1.3-2.6.4-4.1-.4-5.5-2.5-7.5-11.1-15.1-22.2-22.7-33.2-2.5-3.7-5.1-7.3-8.1-11.5-.3,1.4-.4,1.9-.5,2.5-2.3,17.8-4.6,35.5-7.1,53.3-.2,1.3-1.4,2.8-2.6,3.5-3.2,1.9-6.7,3.4-9.9,5.2-1.7,1-3,.9-4.7-.1-10.3-6.1-21.2-10.6-33.1-12.7-6.1-1.1-11.3-.9-16.2,4-7.7,7.8-16.2,14.8-24.1,22.5-8.2,8-15.7,16.5-21.5,26.4-3.7,6.3-6.8,12.9-6.2,20.5,1,12.4,2.1,24.9,3.3,37.3.3,2.7-.3,4.1-3,4.7-10.2,2.2-20.5,4.4-30.7,6.7-4.6,1-9.3,2.2-14.7,3.5,2,1.1,3.2,1.8,4.4,2.5,14.9,7.9,29.6,16,44.6,23.7,3.4,1.8,4.3,4,4.6,7.5.3,4.3-.7,7.6-3.9,10.5-1.9,1.7-3.6,3.5-5.3,5.4-17.1,19.7-29.2,42.2-37.8,66.7-5.6,16-8.3,38.9-8,49.4s3.5,29.1,6.5,37.1c0,0,0-.3.1-.7,4.9,18.8,13.6,35.8,25.9,50.9,23.1,28.3,53.2,44.3,88.9,50.5,1.5.3,3.4-.3,4.9-.9,5.3-2.2,10.5-4.6,15.8-6.8,1-.4,2.6-.3,3.5.2,8,4.6,15.9,9.5,23.9,14.1,18,10.4,37.5,14.8,58.2,14.3,17.3-.4,34.4-2.3,50.7-8.7,8.8-3.4,17.2-7.8,25.7-12,.1,0,.2-.2.3-.3l3.6-2.1c.8-.4,1.5-.6,2-1,2.8-2.5,5.1-1.9,7.8.4,4.9,4.1,10.1,7.7,15.2,11.4.9.6,2.3,1,3.3.8,21.4-4.1,41.1-12.2,59.2-24.3,17.5-11.7,32.5-26.1,44.7-43.4,1.7-2.5,2.9-5.3,4.4-7.9.6-.9,1.7-1.6,2.4-2.7,1.4-2.2,2.6-4.6,3.7-6.9,9.7-19.6,14.5-40.2,15.1-62,.4-14.1-1.9-27.8-5.3-41.2ZM464.9,353.6c-2.1,26.1-10.7,49.7-26.1,70.8-15.1,20.5-33.9,36.9-56.6,48.7-12.3,6.4-25.2,11.1-38.7,14.3-3.4.8-6.1.5-8.9-1.9-4.1-3.5-8.5-6.5-12.7-9.8-6-4.9-7.1-1.9-17.6,4.5,0,0,0,0,0,0-3.4,1.7-6.7,3.5-10.1,5.2-11.2,5.4-22.9,9.4-35.2,11.6-11.5,2-23,2.5-34.6,2.5-12.9,0-25.3-2.5-37-7.6-13.1-5.7-25.8-12.4-37.5-20.8-.9-.6-2.5-1-3.4-.6-6.1,2.4-12.1,5.1-18.1,7.5-1.5.6-3.4.9-4.9.5-7.5-1.8-15.2-3.4-22.5-5.9-25.3-8.6-46.7-23.1-63.3-44.2-10.1-12.9-17.8-27.1-22.8-42.7-1.8-5.7-3.3-11.6-5.1-17.8-1.9-14.6-2-21-2.1-22.2-.7-17.7,1.5-35,7.6-51.7,7.2-19.7,16.7-38.2,29.5-54.9,4.8-6.2,10.3-11.8,15.4-17.8.8-1,1.4-2.5,1.5-3.7.1-3.1-.2-6.2-.2-9.4,0-2.2-.7-3.4-2.7-4.4-13.6-7.1-27.1-14.4-40.6-21.6-.9-.5-1.7-1.1-3.1-1.9,1.4-.5,2.1-.9,2.9-1.1,5.4-1.2,10.8-2.4,16.2-3.6,7-1.5,14-3.1,20.9-4.6,1.5-.3,2.5-.8,2.2-2.8-1.3-8.2-2.7-16.3-3.5-24.5-.7-7-1.2-14.1-.6-21.1.8-9.1,6.2-16.5,11.6-23.6,11.9-15.4,26.3-28.3,41.1-40.9,2.2-1.9,4.3-2.3,6.9-2,13.8,1.7,26.5,6.7,38.1,14.3,1.6,1,2.6.8,4.1,0,3.9-2.2,7.9-4.6,12-6.3,2.8-1.1,4-2.7,4.3-5.6,1.6-13.1,3.3-26.2,5-39.3.3-2.4.8-4.8,1.3-7.6.6.7.9,1,1.1,1.3,8.6,12.5,17.3,25.1,25.9,37.6,1.3,1.8,2.4,2.7,4.9,2.3,17.4-2.8,34.7-2.5,51.9,1.7,2.1.5,3.3,0,4.7-1.4,8.2-8.6,16.4-17.2,24.7-25.8,1.9-2,3.8-4,6.2-6.4.3,1.6.5,2.3.5,3.1.5,13.3.9,26.6,1.3,39.9,0,2.5.8,4,3.1,5.2,4.9,2.7,9.6,5.6,14.2,8.6,1.5,1,2.7,1.2,4.4.3,13.8-7.5,28.6-11.7,44.3-12.7s3.8.4,4.8,1.5c6.1,6.6,12.4,13.2,17.9,20.4,10.1,13.4,19.8,27.1,29.5,40.9,1.9,2.7,3.6,6.1,3.9,9.3,1,9.2.4,18.3-2.3,27.3-1.1,3.6-2.6,7.1-4.1,11,5.4,2.1,10.8,4.2,16.3,6.3,0,0,0,0,0,0,3.2,1.5,6,2.7,6.7,3.3-.7.4-3.3,1.9-6.5,3.8,0,0-.1,0-.2,0-7.9,3.9-15.8,8.1-23.8,11.8-3.7,1.7-6,3.5-4.7,8.1.7,2.3.4,4.8.7,7.2.1,1.2.4,2.4,1.1,3.4,3.9,5.4,7.6,10.9,11.9,16,10.2,12.1,21.4,23.4,29.3,37.3,4.9,8.8,10.1,17.6,13.5,27,6.2,17.4,7.5,35.6,6,54Z"/>
      <path class="cls-2" d="M3.7,348.5c4.3,5.6,6,17.6,2.9,22.3-1-7.6-1.9-14.6-2.9-22.3Z"/>
      <path class="cls-5" d="M91.4,302.5c3.9,13.2,7.2,16,18.9,17.1-2.5,2.4-7.3,3.4-10.5,1.6-7.2-3.8-9-10.4-8.3-18.7h0Z"/>
      <path class="cls-5" d="M80,366.9c-2.1,12.1,1.5,22.5,12.1,26.1,0,.3,0,.6,0,.9-2,0-4.3.7-6-.1-2.4-1.2-4.9-3-6.4-5.2-4-5.7-3.8-15,.2-21.7h0Z"/>
      <path class="cls-5" d="M218.1,170.4c-.9-2.6.5-4.3,2.1-5.8,3.6-3.5,8.2-5,13-5.8,8.3-1.4,16.5-1.4,24.1,2.9,2.5,1.4,4.4,3.3,4.1,6.8-14.9-7.6-29.1-6.9-43.3,2h0Z"/>
      <path class="cls-5" d="M44.6,333.7c-.5-6,0-11.9,2.7-17.3.5-1,1.1-2,1.9-2.7.8-.5,1.9-.5,2.9-.8,0,.9.4,1.9,0,2.7-3.5,9.6-4.1,19.2-.4,28.9.3.8-.2,1.9-.3,2.8-1.1-.3-2.9-.3-3.3-1-1.4-2.5-2.4-5.3-3.2-8-.4-1.4-.3-3-.4-4.5h0Z"/>
      <path class="cls-5" d="M259,136.1c-4.2-.8-8.4-1.9-12.7-2.3-4.5-.4-9.1-.4-13.6,0s-8.4,1.2-13.2,1.9c4.7-7.2,34.8-6.7,39.5.5h0Z"/>
      <path class="cls-5" d="M199.5,115.3c-1.4.6-2.8,1.7-4.3,1.8-8.8.4-17.1,2.3-25,6.1-1.3.6-3,.3-5.1.4,4-7.1,27.5-13,34.5-8.3h0Z"/>
      <path class="cls-5" d="M171.6,145.8c1.3-1,2.5-2.2,4-2.9,7.1-3.5,14.7-4.8,22.5-4.4.4,0,.9,0,1.2.2.9.6,1.7,1.4,2.5,2.1-.9.4-1.9,1.1-2.8,1-8.5-.7-16.3,1.2-23.9,4.8-.9.4-1.9.3-2.9.4-.2-.4-.3-.8-.5-1.2h0Z"/>
      <path class="cls-5" d="M277.2,137.4c6.6-3.9,24.6-1.3,31,4.3-1.5,0-2.4.1-3.1-.1-7.9-2.9-16.1-4.1-24.5-3.4-.8,0-1.7-.4-3.3-.8h0Z"/>
      <path class="cls-5" d="M255.2,109.3c-1.6.4-2.9,1.1-3.9.9-8.9-1.6-17.8-1.6-26.7-.3-1.2.2-2.5-.4-4.3-.7,5.2-4.5,28.4-4.4,34.9,0h0Z"/>
      <path class="cls-5" d="M296.4,120.2c-6.3-1.8-12.7-3.5-19.5-5.4,3.8-2.4,15.3.6,19.7,4.5,0,.3-.1.6-.2.9Z"/>
      <path class="cls-5" d="M392,371.1c5.5,8.1,2.8,24.5-6.9,27.8-2.4.8-4.5.8-7-.7,12.8-4.9,15.1-15.1,13.9-27.2h0Z"/>
      <path class="cls-5" d="M390.8,305.7c3.7,7.5,3.8,15,.2,22.5-1.8,3.8-4.5,6.5-9.9,7,10.8-7.9,11.7-18.2,9.7-29.5h0Z"/>
      <path class="cls-7" d="M189.3,389.3s30.7-18.2,48.4,12.1c0,0,13.2-34,41.2-18.1,0,0-.7,22.7-8.2,38.8,0,0-4.7-4.5-9.5-1.9,0,0-5-19.3-11.8-17.7s-10.5,16.7-10.5,16.7c0,0-3.6-1.4-9.8.6,0,0-4.9-17.9-10.9-17.9s-10.8,15.8-10.8,15.8c0,0-4.9-1.9-9.4,1,0,0-7.7-13-8.8-29.5Z"/>
      <path class="cls-5" d="M424.3,339.5c0,1.1-.1,1.5,0,1.9,1.3,8.8,1,17.2-3.6,25.2-.4.8.7,2.6,1.5,3.7.2.3,2.1-.3,2.8-.9.8-.8,1.3-2,1.7-3.1,2.1-5.5,2.4-11.2,1.7-17-.4-3.3-.8-6.8-4-9.8h0Z"/>
      <path class="cls-2" d="M326.9,304.7c-.9-16.1-6-27.5-15.8-36.3-6.4-5.8-13.5-10.9-20.8-15.4-6.5-4-13.6-7.7-21.9-5.3-.6.2-1.2,0-1.8,0-.8.2-5.1-.6-7.6-.8-5.9-1.3-11.1-4.1-15.9-7.7-1.7-1.3-2.8-1.2-4.6-.2-10.7,5.9-22,8.1-34.1,5.8-1.1-.2-2.4-.1-3.5.2-9.8,2.6-18.9,6.8-27.6,12.1-8.1,5-15.4,11.1-21.1,18.8-12.2,16.6-12.6,34.7-6.3,53.5.4,1.1,1.5,2.2,2.6,2.7,9.2,5,19.1,7.3,29.7,6.8,19.2-.9,35.1-9.6,49.8-21.1.9-.7,1.5-2.2,1.5-3.3,0-12.4-.4-24.8-.5-37.2,0-2.4-.8-3.9-3-5-2.9-1.4-5.6-3.3-8.4-4.7-1.4-.7-3-1.2-4.6-1.3-3.8-.1-6.6,1.6-8.1,5.2-.8,2-2.5,3-4.3,2.3-1.3-.5-2.4-2.3-2.8-3.7-.4-1.6,0-3.4.2-5.1,1-8.5,7.4-16.2,14.3-17.2,6.7-1,13.1.1,18.8,3.9,2,1.3,3.2,1,5-.3,7.4-5.4,15.3-6.2,23.6-2,1.9,1.3,4.2,2.8,4.5,3.5.7,1.4,2.2,2.5,2.7,4,1.2,4,2.8,8.8,2.7,12.2-.1,3.4-3.3,5.7-4.9,2.3s-7.5-6.3-13-3c-3.4,2-6.7,4.2-10.2,5.9-2,1-2.8,2.2-3,4.3-.9,11.7-1.8,23.5-2.8,35.2-.2,2.1.4,3.4,2.1,4.5,7.6,4.4,15.1,9,22.8,13.1,11.6,6.1,23.7,10.8,36.8,12,9.6.9,18.7-2.1,23-11.5,4.4-9.6,6.6-19.6,6.5-27.3h0Z"/>
      <path class="cls-2" d="M182.6,360.5c0,5.5-.2,11-.1,16.5.3,13.5,1.8,26.7,7.2,39.3.4.8.7,1.7,1.1,2.5,1.5,3,.8,5.5-2,7.5-10.4,7.3-22.7,7.3-32-.1-1-.8-2-2.3-2-3.4,1.3-20,5.7-39.1,19.1-54.9,2.4-2.8,5.4-5.3,8.1-7.9l.7.5Z"/>
      <path class="cls-2" d="M275.1,425.4c5.1-10.2,8.4-20.7,9.1-31.9.7-10.9.9-21.8,1.3-33.3,3.6,3.6,7.4,6.8,10.5,10.6,10.5,12.9,15.4,27.9,16.5,44.3.1,1.6-.5,3.6-1.4,5-8.8,12.2-23.4,13.5-36,5.3h0Z"/>
      <path class="cls-2" d="M201.8,74.6c-5.3,5.7-11.7,6.6-19.2,6.1,1.3-9.2,2.6-18.2,3.9-27.2.2,0,.5-.1.7-.2,4.9,7.1,9.7,14.2,14.6,21.3h0Z"/>
      <path class="cls-2" d="M283.9,56.1c0,8.6.3,16.5.2,24.5,0,.8-1.6,2.2-2.4,2.2-6.1,0-11.8-1.3-15.7-5.6,5.9-6.9,11.7-13.8,18-21.1h0Z"/>
      <path class="cls-2" d="M57.9,185.7c5.3-1.6,9.6-3,13.9-4.2.7-.2,2.1.4,2.3,1,.7,1.9,1.6,4,1.4,6-.3,5.3-2.4,6.1-6.8,3.4-3.3-2-6.7-3.9-10.9-6.3h0Z"/>
      <path class="cls-2" d="M404.1,186c-5,2.5-9.1,4.6-13.3,6.5-.5.2-2.2-.7-2.2-1.2-.5-3.1-.7-6.2-.8-9.3,0-.5,1.4-1.6,1.8-1.4,4.6,1.6,9.2,3.4,14.5,5.5h0Z"/>
      <path class="cls-2" d="M218.5,409c2.6,3.9,3.4,8.4,4.5,12.9,0,.3,0,.8-.1.8-1.9.5-4.1,1.6-5.8,1.2-1.7-.4-4.5-2.8-4.2-3.6,1-4,3-7.7,4.6-11.5l1.1.3h0Z"/>
      <path class="cls-2" d="M249.8,409.5c3,4.3,3.8,8.8,4.7,13.3,0,.3,0,.8-.1.8-1.7.5-3.7,1.6-5.2,1.2-1.9-.5-5-2.5-4.9-3.4.7-4.2,2.4-8.2,5.5-11.9h0Z"/>
      <path class="cls-2" d="M322.2,388.1c3.7,2.5,4,6.4,4,10,0,3-4.6,4.9-8.6,3.8,1.5-4.5,3-9,4.5-13.9h0Z"/>
      <path class="cls-2" d="M146.2,391.2c1.6,4.8,2.8,8.8,4.2,12.9-2.4.7-4.4,0-5.6-2.2-2.1-3.7,0-6.8,1.5-10.7Z"/>
      <path class="cls-2" d="M436.3,292.6c-.7-1.6-4-7.9-4.2-8.3-4.6-6.7-8.9-13.7-13.9-20.1-7.5-9.6-15.7-18.7-23.4-28.1-3.1-3.8-5.7-7.9-8.9-12.3-.4,2-7.1-25.4-14.5-38.2-2.6-4.5-5.6-8.6-9.9-11.7-3.1-2.9-5.6-4.7-7.5-5.7-.3-.2-.6-.3-.9-.5-9.4-4.6-19.5-5.7-29.8-4.3-11.5,1.5-22,5.7-31.9,11.5-1.4.8-2.9,1.5-4.4,2.2-.1-.3-.3-.7-.4-1.1,15.2-14.9,33.2-22.2,55.3-19.2-.6-1-.8-1.7-1.3-2.2-7-8.1-13.4-16.7-21.1-24-23.6-22.5-51.5-36.4-84.5-38.8-14.5-1-28.6.7-42.3,5.1-25.5,8.1-46.6,23.1-64.9,42.3-2.3,2.4-4.6,4.7-6.9,7.1,8.3,1.2,15.9,1.9,23.3,3.5,9,2,19,7,21,9.5-2-.6-3.9-1.1-5.7-1.6-14.7-3.8-29.5-6.9-44.7-2.9-15.6,4.1-24.4,14.3-24.1,30.4.1,8,2.8,15.4,5.1,22.9.4,1.2.6,2.5.9,3.8-.3.1-.7.2-1,.4-1.2-2.4-2.5-4.7-3.8-7.3-.5.7-.9,1.1-1.1,1.5-4.8,10.4-12,19.1-19.2,27.8-3.4,4.1-7.4,7.7-10.8,11.9-10.2,12.5-17.9,26.5-24.6,41.2-12.8,28.1-15.3,56.9-6.7,86.7,6.6,22.8,18.1,42.6,36,58.4,13.6,12,29.3,20.2,46.6,25.4,2.8.8,5.7,1.5,8.4,2.2.6-11.1.9-21.6,1.8-32.1,1.2-13.4,2.6-26.9,4.3-40.2,2.3-17.9,7.1-35.1,13.7-51.8.4-1.1.3-2.5,0-3.7-1.4-7-3.7-13.9-4.1-21-1.2-18.6,5.5-34.3,18.9-47.2,2.7-2.5,5.5-4.9,8.7-7.8-17.3,0-32.2-4.5-43-18-10.9-13.7-10.7-29.6-6.9-46.2-4.7-1-9.2-2-13.7-2.9,0-.3.1-.6.2-.9,10.7-1.2,21.3-.4,31.5,3.2,16.7,5.9,30.1,16.5,41.8,29.5,5.4,5.9,11.6,10.5,18.8,14,22.7,11.1,50.2,1,61.6-17,.4-.7,1-1.2,1.5-1.8-.4,7.3-4.2,12.8-9.2,17.9,6.2,5.1,12.9,7.8,20.7,7.7,10.1-.2,17.6-5.5,24.6-12.2,6-5.7,12.1-11.2,18.1-16.9.6-.6.9-2.2.6-2.9-1-2.4-2.6-4.6-3.7-6.9-1.3-2.8-2.8-2.6-4.8-.7-2.6,2.4-5.4,4.5-8.1,6.8-.2-.3-.5-.5-.7-.7,2.6-2.7,5-5.8,7.9-8.1,2.3-1.8,2.1-3.1.5-5.1-2-2.6-3.8-5.4-5.7-8.2.2-.2.5-.5.7-.7,2.8,2.4,5.8,4.6,8.4,7.2,1.8,1.8,3.2,1.8,5.2.7,2.7-1.4,5.6-2.4,8.4-3.6.1.3.3.5.4.8-3.1,1.9-6.3,3.8-9.8,6h0c3.2,3.5,6,6.7,8.9,9.9,14.6-8,29.8-13.2,47.1-11.5-.1-.5-.3-1-.4-1.5.3.6.4,1.1.4,1.5,3.3.9,6.4,3.5,8.4,4.9,1.3.9,2.3,2.1,4.1,3.7-2-.2-6.1-2.2-7.4-2.3-3.8-1.8-3.9,7-4.6,10.6-.7,3.6-2.8,10.7-5.3,17.3-4,10.6-9.8,20.1-19.6,26.5-.6.4-1.2,1.4-1.1,1.8.9,2.9,2,5.8,2.9,8.3,6.2-1.7,12-3.3,17.7-4.9.1.4.2.7.3,1.1-1,.4-2,.8-3,1.2-3.9,1.5-7.9,3.1-11.8,4.6-1.8.7-2.5,1.6-1.8,3.6.8,2.2,1.4,4.4,1.9,6.7.9,4.1,1.8,8.2,2.7,12.4-3-5-5.2-10.1-7.7-15.2-2-4.2-2.1-4.2-6-1.9-.9.5-1.9,1-2.8,1.5-.1-.2-.2-.3-.4-.5,1.9-1.7,3.8-3.4,5.9-5.3-1.5-2.4-3-4.8-4.4-7.2-1.1-2-2.6-2.3-4.8-2.1-3.8.4-7.6.5-11.4.7-1.3,0-2.6-.1-4.6-.2,1.2,1.2,1.9,1.8,2.5,2.5,9.2,9.1,15.5,19.7,17.4,32.8,1.6,11,0,21.7-3.8,32.1-1.1,2.9-.9,5.2.2,8,2.8,6.5,5.3,13.1,7.6,19.7,5.3,14.9,9.7,30.2,11,46,1.5,18,1.4,36,0,54-.3,4-.9,8-1.4,12.6h0c1.6-.4,2.6-.5,3.5-.8,14.2-4.4,27.6-10.8,39.8-19.3,17.2-11.9,31.5-26.6,42.1-44.8,1.8-3,4.3-7.5,8-17.2,12.9-28.2,9.9-74.3-3.3-93.7ZM59.6,326.1c.5,6.1-.3,12-2.4,17.8-.4,1.1-1,2.2-1.7,3.2-3.2,4.4-7.6,4.5-10-.4-1.9-4.1-3.3-8.7-3.5-13.2-.3-4.9.7-10,1.8-14.9.5-2.3,2-4.6,3.6-6.5,2.4-2.9,5.5-2.7,8,.1,2.5,2.9,3.8,7.1,4.3,13.9h0ZM103.4,374.2c.1,9.1-1.6,15.6-7.6,20.1-5.1,3.9-11,3.5-15.6-1.1-7.8-7.7-8-22.7-.3-30.6,6.5-6.6,15.8-5.6,20.3,2.6,1.8,3.3,2.6,7.1,3.3,8.9h0ZM118.3,297.9c2.1,6.3,1.3,12.3-1.1,18.2-.3.8-2.8,3.7-3.5,4.3-7.6,6.3-15.8,5.4-21.6-2.6-5.5-7.4-4.4-20.4,2.2-26.8,8.2-7.8,20.3-4.3,23.9,6.8ZM167,125.9c-1.4-.3-3.3-1.4-3.6-2.5-.3-1.1.8-3.3,1.8-3.9,4.1-2.3,8.3-4.5,12.8-5.9,6-2,12.2-3.4,18.7-2.5.6,0,1.3,0,1.8.3,1.2.8,2.8,1.6,3.1,2.8.3.9-.7,2.8-1.7,3.5-2.7,1.8-5.6,3.6-8.7,4.6-5.5,1.8-11.2,3.1-16.8,4.5,0-.1,0-.2-.1-.4h0c-2.4-.1-4.9,0-7.2-.4ZM203.2,142.6c-2.6,2-5.5,3.8-8.5,4.9-4,1.4-8.4,2-13.1,3h0c-2.7-.3-6-.4-9-1.2-3.7-.9-4.4-4-1.3-6.1,3.1-2.1,6.6-4.1,10.2-4.8,5.7-1.2,11.7-1.3,17.6-1.7,1.1,0,2.4.5,3.4,1.1,2.2,1.1,2.7,3.4.8,4.9ZM220.8,105.9c2.9-.9,5.9-1.5,8.8-1.8,7.6-.6,15.3-.7,22.8,1.2,2.1.5,4.9.9,4.8,3.7,0,2.8-2.8,3-4.9,3.5-3,.6-5.9.9-8.9,1.4,0,.2,0,.4-.1.6-6.9-.8-13.9-1.6-20.8-2.5-.5,0-1.1-.1-1.4-.4-1.1-.9-2.6-1.9-2.8-3-.1-.7,1.5-2.4,2.6-2.7ZM219.8,131.5c2.6-1.2,5.4-2.1,8.3-2.6,9-1.4,18-.8,26.9,1.3,1.4.3,3,.9,4.1,1.8,1.1.9,2.3,2.4,2.2,3.5,0,1.2-1.5,2.8-2.6,3.2-4.3,1.3-8.7,2.2-13.8,3.4-6.2-.7-13-1.4-19.7-2.4-1.9-.3-3.9-1.2-5.5-2.3-2.7-1.7-2.6-4.6.2-5.9ZM263.7,167.8c-.1,4.1-2.8,6.6-6.1,8.4-10.6,5.7-21.7,6.3-33,2.5-1.5-.5-3-1.3-4.3-2.1-6-3.8-6.3-10-.8-14.5,5.5-4.4,12.1-5.6,18.9-6.2h0c6.7-.4,13.3.2,19.3,3.4,3.3,1.8,6,4.2,5.9,8.4ZM279,111.1h0c6.5.5,12.5,1.7,17.9,5,1.6,1,3.4,2.1,2.8,4.5-.7,2.4-2.7,1.8-4.5,1.9-6,.1-11.5-1.7-16.7-4.3-.2,0-.4-.2-.5-.3-1.1-1.4-2.2-2.8-3.3-4.2,1.5-.8,3-1.7,4.4-2.5ZM277.8,140c-.9-.9-2-2.2-2-3.3,0-.9,1.5-2.1,2.5-2.5,1.8-.6,3.7-.7,5.6-1h0c7.6-.2,14.8,1.1,21.8,4.1,2,.9,4.8,1.8,4.2,4.7-.6,2.7-3.4,2.9-5.6,3.1-8.1.5-16-.3-23.6-3.5-1-.4-2.2-.8-2.9-1.5ZM390.2,398.8c-6.3,5-14.7,3.9-18.9-2.9-2.2-3.5-4.4-11.7-4.2-11.8h0c-.3-6.2,1.1-12,5.1-17,5-6.3,13.3-7,19.1-1.5,8.6,8.1,8,25.9-1.1,33.2ZM390.5,333.4c-5.6,6.1-13.8,5.5-18.1-1.6-2.1-3.5-3.2-7.7-4.1-9.8h0c-.3-8.6,1-14.8,5.1-20.2,4.7-6.2,12.5-6.5,17.6-.6,7.1,8.2,6.8,24.3-.5,32.2ZM428.3,369.4c-.6,1.2-1.6,2.3-2.6,3.2-2.2,1.8-4.2,1.5-6-.8-3-3.9-3.8-8.6-4.8-13.5h0c.9-5,1.6-10.1,2.6-15,.4-1.7,1.4-3.3,2.5-4.7,2.1-2.7,4.4-2.6,6.9-.2,3.3,3.1,3.8,7.2,4.2,11.3.7,6.8.4,13.5-2.9,19.7Z"/>
      <path class="cls-5" d="M311.1,268.5c-5.4-4.9-11.3-9.3-17.5-13.3,5.1,17.8,7.7,34.6,4.2,45.4-9.6,30-51.8,14.7-62,10.5,0,1-.2,1.9-.3,2.9-.2,2.1.4,3.4,2.1,4.5,7.6,4.4,15.1,9,22.8,13.1,11.6,6.1,23.7,10.8,36.8,12,9.6.9,18.7-2.1,23-11.5,4.4-9.6,6.6-19.6,6.5-27.3h0c-.9-16.1-6-27.5-15.8-36.3Z"/>
      <path class="cls-5" d="M196.3,329.6c-18.1,5.2-34,5.2-45.4,4,8.5,4.1,17.6,6,27.2,5.6,19.2-.9,35.1-9.6,49.8-21.1.9-.7,1.5-2.2,1.5-3.3,0-1.3,0-2.7,0-4-9.5,8.1-20.8,15.4-33.1,18.9Z"/>
      <path class="cls-5" d="M431.6,403.4c1.8-3,4.3-7.5,8-17.2,12.9-28.2,9.9-74.3-3.3-93.7-.7-1.6-4-7.9-4.2-8.3-4.6-6.7-8.9-13.7-13.9-20.1-7.5-9.6-15.7-18.7-23.4-28.1-3.1-3.8-5.7-7.9-8.9-12.3-8.9-25.8-2.9,1.1-3.4-.7l.7,4.6c24.7,25.5,47.9,60.6,46.7,101.8-.1,4-.4,7.9-.9,11.6,1.5,2.6,1.9,5.6,2.2,8.6.7,6.8.4,13.5-2.9,19.7-.6,1.2-1.6,2.3-2.6,3.2-1.9,1.6-3.7,1.5-5.3,0-18,39.6-56.3,55.7-71.8,60.8-.1,7.5-.5,15-1.1,22.5-.3,4-.9,8-1.4,12.6h0c1.6-.4,2.6-.5,3.5-.8,14.2-4.4,27.6-10.8,39.8-19.3,17.2-11.9,31.5-26.6,42.1-44.8Z"/>
      <g>
        <path class="cls-5" d="M254.2,217.9c.4-.7,1-1.2,1.5-1.8,0,0-34.1,21.8-51.7,14s-58-53.3-100.9-42.2h0c9.9-.8,19.6.1,29,3.5,16.7,5.9,30.1,16.5,41.8,29.5,5.4,5.9,11.6,10.5,18.8,14,22.7,11.1,50.2,1,61.6-17Z"/>
        <path class="cls-5" d="M308.1,205.2c-30.1,23.6-33.8,37-55.9,27.2l2.1-9.7c-1.6,4.2-4.4,7.8-7.8,11.3,6.2,5.1,12.9,7.8,20.7,7.7,10.1-.2,17.6-5.5,24.6-12.2,6-5.7,12.1-11.2,18.1-16.9.6-.6.9-2.2.6-2.9-.7-1.5-1.5-3-2.4-4.4Z"/>
        <path class="cls-5" d="M296.9,116.1c1.6,1,3.4,2.1,2.8,4.5-.4,1.6-1.5,1.9-2.8,1.9,9.4,9.6,17,21.2,21.4,35.3,7.3-1.7,15.2-2.1,23.7-.9-.6-1-.8-1.7-1.3-2.2-7-8.1-13.4-16.7-21.1-24-19-18.1-40.7-30.6-65.6-36.1,10.6,4.5,21.2,10.1,30.7,17.2,4.4.7,8.4,2,12.2,4.3Z"/>
        <path class="cls-5" d="M313.2,201.3c1.7,1.9,3.3,3.7,5,5.5,14-7.7,28.6-12.8,45.1-11.6-7.7-5.5-24.9-12.6-50,6.1Z"/>
        <path class="cls-5" d="M371.4,185.5c-2.6-4.5-5.6-8.6-9.9-11.7-3.3-3-5.8-4.9-7.8-5.8-.2-.1-.4-.3-.7-.4-9.4-4.6-19.5-5.7-29.8-4.3-11.5,1.5-22,5.7-31.9,11.5-.5.3-1,.6-1.6.8l-4,2.4s41.2-17,66.7-1.7c0,0,0,0,0,0,0,0,0,0,0,0,4.3,2.7,11.4,8.7,13.5,19.2,3,1.1,5.7,3.4,7.6,4.7,1.3.9,2.3,2.1,4.1,3.7-.8,0-1.8-.4-2.9-.8l8.2,21.6,1.4-4.7c-2.4-7.5-7.5-25.2-13-34.7Z"/>
      </g>
      <path class="cls-4" d="M295.7,234.8s17.1-21.1,31-25.5c0,0,6.3,33.4-31,25.5Z"/>
      <path class="cls-3" d="M76.5,201.4s12.3-13-1.1-26.6c0,0,6-16.7,8.5-17.8l8.3-4.7,5,3.9s-17.1,12.2-8.5,38.5c0,0-2.4,10.7-12.2,23.8,0,0-2.1-14.4,0-17.2Z"/>
      <path class="cls-3" d="M143.7,205s-3.6,18.5,8.6,25.6,25,2,25,2c0,0-16.7-19.1-33.7-27.7Z"/>
      <path class="cls-3" d="M361.6,150.7l5.2-7s15.5,25.8,17,32.1c0,0-6.1,10.8,3.2,26.1l2.4,13.4-3.3-4.6s-2.4-22.6-22.8-44.6c0,0,3-7.3-1.7-15.5Z"/>
      <path class="cls-3" d="M290.8,76.8v10.2c-25.3,5-33.2-10.9-33.2-10.9l7.5-7.9c-8.7-1.9-18.8-3.1-30.4-3.2-11.5-.1-21.6.7-30.3,2.1l5.3,8.1c-12.1,16.7-33.5,9.7-33.5,9.7l1.9-11c-14.6,5.6-20.8,11.9-20.8,11.9l15.2,12.6c64.4-31.6,123.1,6.9,123.1,6.9l16.1-13.4s-6.3-7.9-21.1-15.1Z"/>
      <path class="cls-4" d="M177.4,232.6s-16.7-19.1-33.7-27.7c0,0-.4,2.1-.5,5.2,3.4,2.2,8.7,6.4,15.7,14,3.8,4.2,7.7,7.5,11.3,10,4.3-.4,7.2-1.6,7.2-1.6Z"/>
      <path class="cls-3" d="M311.9,224.8c-4.9,4.9-8.8,8.4-11.9,10.7,23.4,3.2,27-11.8,27.1-20.5-5.2,1.9-10.4,4.9-15.2,9.8Z"/>
      <path class="cls-4" d="M386.1,210.8l3.3,4.6-2.4-13.4c-4.2-6.9-5.3-12.9-5.2-17.4l-4.3-6.7-3-8.5,2.1-8.2c-4.7-8.6-10-17.4-10-17.4l-5.2,7c4.7,8.2,1.7,15.5,1.7,15.5,20.5,22,22.8,44.6,22.8,44.6Z"/>
      <g>
        <path class="cls-4" d="M219.1,65.4c-5.2.4-10.1.9-14.6,1.6l5.3,8.1c-.4.6-.8,1.1-1.2,1.6,5.7-4,8.9-8,10.5-11.4Z"/>
        <path class="cls-4" d="M180.5,92.4c-8.4-4.9-14.8-7.7-19.6-9.3-2.3,1.7-3.4,2.8-3.4,2.8l15.2,12.6c64.4-31.6,123.1,6.9,123.1,6.9l3-2.5c-55.7-38.6-118.2-10.5-118.2-10.5Z"/>
        <path class="cls-4" d="M282.6,88c7.5,1.7,16.1-3.2,18.9-4.9-2.9-2-6.4-4.1-10.7-6.2v10.2c-3,.6-5.7.9-8.2.9Z"/>
      </g>
      <g>
        <path class="cls-4" d="M80.1,181.4c4.9,10.9-3.6,19.9-3.6,19.9-.2.3-.4.9-.6,1.5l7.4,1.2s.8-18.1-3.2-22.6Z"/>
        <path class="cls-4" d="M97.3,156.1l-5-3.9-8.3,4.7c-.6.3-1.4,1.4-2.3,3,3.4-.8,8.3-1.5,11.4.5,2.3-3,4.3-4.4,4.3-4.4Z"/>
      </g>
      <path class="cls-1" d="M73.5,157.4s25.8-12.4,47.9-32.8c0,0,3.9-15.9,2.2-29l1.7,9.4,12-10.3,16.5,7.7-20.1,21.5-.2,2.2s11.4-11.6,27.7-21.6c0,0-14-24.9-46.8-30.8,0,0-29.9,24.7-38.7,39.4-8.9,14.8-5.4,16.4-2.2,44.4Z"/>
      <path class="cls-1" d="M142.3,408.9s2.6.9,6.4,2v16.4c.1,0,13,15.2,32.6,8.7,19.7-6.5,14.9-13.7,21.8-13.7s4.9,7.7,14.2,8.4,10-5.8,16-6c6.1-.2,8.8,6.8,16.2,6.5s9.5-5.2,13.6-5.4,30.7,27.1,55.7-6.2l-.6-9.8s2,.8,8.6-4.1c0,0,4.6,19.1,2,29.8,0,0-93.1,81.4-188-3.2l1.5-23.2Z"/>
      <path class="cls-6" d="M144.1,442.8s76.8,94,180.6,3.6c0,0-90.3,69.4-180.6-3.6Z"/>
      <path class="cls-6" d="M121.4,124.5s3.9-15.9,2.2-29l1.7,9.4,12-10.3,16.5,7.7-20.1,21.5-.2,2.2s11.4-11.6,27.7-21.6c0,0-2.6-4.6-8.1-10.3l-17.1-3.7-8.4,5.3c-1.3-6.1-7.1-13-7.1-13,2.5,25.9-4,42.1-10.6,51.5,3.8-3,7.7-6.2,11.4-9.7Z"/>
      <path class="cls-6" d="M326.7,405.6c-6.6,4.9-8.6,4.1-8.6,4.1l.6,9.8c-25,33.4-51.6,6-55.7,6.2-4.1.2-6.2,5.1-13.6,5.4-7.4.3-10.2-6.7-16.2-6.5-6.1.2-6.8,6.7-16,6-9.3-.7-7.4-8.4-14.2-8.4-6.8,0-2.1,7.2-21.8,13.7-19.7,6.5-32.5-8.7-32.5-8.7v-16.4c-3.9-1-6.5-2-6.5-2l-1.5,23.2c.9.8,1.8,1.6,2.7,2.3,2.2-1.1,4.9-1.7,7.5-.8,7,2.2,12.6,9.8,26.7,7.7,14.1-2,18.2-6.8,22.9-11s8.9,5.8,16.5,6.6,13.8-7.6,18.2-7.5c4.4,0,7.9,7.2,14.7,7.2s9.4-6.2,15.1-4.3c5.7,1.9,11.7,6.3,22.2,7.4,10.6,1.1,14.1-3.7,17.5-.2,1.6,1.7,4.1,5.1,6.3,8.3,11.3-6.8,17.8-12.5,17.8-12.5,2.7-10.7-2-29.8-2-29.8Z"/>
      <path class="cls-5" d="M120.4,460c.6-10.5.9-20.5,1.7-30.5-59.6-7.6-84.4-39.6-94.8-63.8.6,2.7,1.3,5.5,2.1,8.2,6.6,22.8,18.1,42.6,36,58.4,13.6,12,29.3,20.2,46.6,25.4,2.8.8,5.7,1.5,8.4,2.2Z"/>
      <path class="cls-1" d="M306.5,111.7l-5.1-3.6s35.7-30.2,61.4-28.3c0,0,2.1-5.1,43.5,57.6,0,0,2.8,12.3-.3,18.7l-37.2-30.2-4.9-25.3-57.4,10.9Z"/>
      <path class="cls-6" d="M372.9,125l-5.4-27.9c-19.4,1.8-52.4,11.9-61,14.6,8.6,6.7,25.4,20.4,31.1,28.4l1.9-2.5-16.4-24.3,38.2-9.5.6,25.5,41.7,36.2s1.3-3.9,2.4-9.2l-33.1-31.3Z"/>
    </g>
  </g>
</svg>