<?xml version="1.0" encoding="UTF-8"?>
<svg id="Calque_8" xmlns="http://www.w3.org/2000/svg" viewBox="0 0 835.02 190.36">
  <defs>
    <style>
      .cls-1 {
        fill: #fff;
        fill-rule: evenodd;
      }
    </style>
  </defs>
  <path class="cls-1" d="M690.43,54.69c-4.44-.69-8.38-.2-11.83,1.28-3.45,1.48-5.42,3.55-5.81,6.41-.4,2.96.79,5.72,3.64,8.57,2.9,3.04,6.77,4.99,10.94,5.52,4.33.59,8.28-.1,12.02-2.17,3.45-1.97,5.42-4.34,5.91-7.29.4-2.86-.89-5.42-3.84-7.78-2.86-2.36-6.5-3.94-11.03-4.53Z"/>
  <path class="cls-1" d="M713,60.5c-.4,2.86.78,5.72,3.54,8.47,2.96,2.96,6.5,4.83,10.74,5.42,4.34.59,8.28-.1,11.93-2.17,3.35-1.87,5.32-4.24,5.71-7.19.4-2.66-.79-5.22-3.64-7.59-2.86-2.37-6.5-3.84-10.84-4.43-4.53-.69-8.38-.29-11.73,1.28-3.45,1.38-5.32,3.54-5.72,6.21h0Z"/>
</svg>