<?xml version="1.0" encoding="UTF-8"?>
<svg id="Clippy" xmlns="http://www.w3.org/2000/svg" viewBox="0 0 835.02 190.36">
  <defs>
    <style>
      .cls-1 {
        fill: #666575;
      }

      .cls-1, .cls-2 {
        fill-rule: evenodd;
      }

      .cls-2 {
        fill: #737da7;
      }
    </style>
  </defs>
  <path class="cls-1" d="M706.4,13.8c2.17-1.18,4.61-1.8,7.09-1.77,2.67-.1,4.93.59,6.8,1.77,1.97,1.17,3.4,3.09,3.94,5.32,1.09,4.53,1.28,9.85.6,15.96-1.78,14.68-3.06,26.01-3.55,34-.78,10.15-1.77,29.36-3.05,57.64-.1,3.26-1.09,5.91-2.66,7.89-1.68,1.87-3.45,2.85-5.62,2.85-2.27.1-4.04-.59-5.52-2.17-1.58-1.67-2.46-4.13-2.36-7.39,0-6.79.39-19.51,1.38-38.13-.49-2.27-2.17-3.15-4.93-2.56-1.38.3-2.36,1.38-2.85,3.15-.99,19.61-1.38,33.4-1.19,41.18.1,5.13,1.78,9.17,5.13,12.02,3.05,2.56,6.8,3.74,11.04,3.55,4.23-.3,7.88-1.77,10.94-4.53,3.35-3.15,5.12-7.3,5.32-12.32.59-17.64,1.87-34.39,3.94-50.55l5.22-43.65c1.28-15.17-1.58-25.62-8.67-31.14-4.43-3.35-9.56-5.03-15.47-4.93-6.2.1-11.43,2.07-15.66,5.91-5.13,4.63-8.08,11.04-8.97,19.31-3.64,36.36-5.13,78.93-4.53,127.8.19,8.87,3.15,15.57,9.16,20.2,5.32,3.94,11.82,5.81,19.51,5.12,7.68-.59,14.19-3.25,19.51-7.98,6.01-5.03,8.97-11.43,9.07-18.92l.99-37.94c.19-5.81,3.74-12.61,10.74-20.49,0-1.77-.69-3.15-1.97-4.14-1.08-.99-2.66-1.38-4.43-1.48-8.67,8.77-13.11,16.56-13.01,23.35l-.78,39.71c-.4,5.32-2.67,9.65-6.6,12.71-3.54,2.76-7.79,4.24-12.91,4.34-4.93.1-9.16-1.08-12.91-3.74-4.04-2.66-6.2-6.7-6.6-11.72-.89-9.95-.59-28.38.99-55.38l4.43-64.64c.49-5.42,1.58-9.75,3.15-13.01,1.08-2.17,2.85-3.95,5.32-5.23h0Z"/>
  <path class="cls-2" d="M702.45,14.19c3.45-3.55,7.68-5.13,12.91-4.73,5.32.49,9.26,2.86,11.92,7.09,1.38,2.17,2.27,4.83,2.47,8.28.09,2.47,0,6.31-.5,11.33l-3.64,36.56c-1.28,14.88-2.27,33.11-2.95,54.58-.1,3.45-1.28,6.21-3.55,8.28-1.97,1.87-4.43,2.96-7.39,3.15-2.76.3-5.32-.19-7.29-1.67-2.27-1.48-3.35-3.55-3.45-6.4-.09-12.81.2-25.72.89-38.82,1.09-.79,1.28-1.68.69-2.66-.69-.99-1.67-1.38-3.05-1.38-1.58,0-2.56.79-2.95,2.17-.5,1.48.3,2.17,2.17,2.37-.79,19.51-1.18,32.71-.99,39.81,0,3.44,1.48,6.11,4.23,7.88,2.46,1.67,5.62,2.26,9.26,1.97s6.7-1.57,9.36-3.64c2.86-2.36,4.44-5.32,4.73-9.06,1.48-24.73,2.56-41.68,3.35-50.55,1.09-11.23,2.76-24.24,4.93-39.22,1.87-12.22.78-21.48-3.55-27.88-4.04-5.91-9.65-8.77-16.65-8.67-7.19.1-12.91,3.25-17.14,9.46-2.07,2.96-3.55,8.67-4.73,16.85-3.74,28.57-5.32,70.25-4.93,124.94,0,6.89,2.66,12.12,7.98,15.76,4.73,3.35,10.64,4.93,17.64,4.63,6.9-.4,12.71-2.36,17.64-6.21,5.52-4.13,8.28-9.56,8.47-16.26l.99-39.51c0-6.7,3.94-13.59,11.63-20.59.4-.59.3-1.28-.39-2.07-.99-.89-1.58-1.38-1.97-1.28-8.38,9.16-12.61,17.14-12.61,23.65,0,25.23-.3,38.72-.89,40.6-1.68,5.81-4.93,10.24-9.75,13.2-4.23,2.56-9.07,3.84-14.39,3.64-5.22-.19-9.75-1.68-13.6-4.34-3.94-2.95-6.11-6.7-6.4-11.23-.78-11.13-.59-29.86.59-56.17,1.18-25.33,2.86-47.99,4.83-67.79.89-7.28,2.86-12.7,6.11-16.05h0Z"/>
</svg>