<?xml version="1.0" encoding="UTF-8"?>
<svg id="Calque_7" xmlns="http://www.w3.org/2000/svg" viewBox="0 0 835.02 190.36">
  <defs>
    <style>
      .cls-1 {
        fill: #b7b68b;
      }

      .cls-1, .cls-2, .cls-3, .cls-4, .cls-5 {
        fill-rule: evenodd;
      }

      .cls-2 {
        fill: #ccc772;
      }

      .cls-3 {
        fill: #938d55;
      }

      .cls-4 {
        fill: #b2ac66;
      }

      .cls-5 {
        fill: #c99;
      }
    </style>
  </defs>
  <path class="cls-2" d="M626.39,162.07s46.3-14.95,60.14-56.11c13.84-41.16,47.41-63.8,47.41-63.8,0,0,12.68-7.78,101.09.15-27.95,13.78-25.59,40.25-32.73,72.76s-46.18,75.29-46.18,75.29l-129.72-28.29Z"/>
  <path class="cls-4" d="M697.37,176.67c-23.74-10.94-12.99-28.82-12.99-28.82,0,0,36.74-4.22,44.23-24.84s12.65-68.01,36.43-65.16,34.51,11.7,30.75,29.2-11.16,57.15-25.74,69.57-48.95,30.99-72.68,20.05Z"/>
  <g>
    <path class="cls-1" d="M809.6,76.22c.07-.27.14-.54.21-.81l-99.18-11.4c-.21.25-.43.5-.64.76l99.61,11.45Z"/>
    <path class="cls-1" d="M806.91,89.46c.05-.27.1-.54.14-.81l-104.08-14.74c-.18.25-.35.5-.53.76l104.47,14.8Z"/>
    <path class="cls-1" d="M804.74,102.39c.05-.27.09-.54.14-.81l-108.17-17.91c-.15.26-.3.5-.45.76l108.48,17.97Z"/>
    <path class="cls-1" d="M814.09,63.21c.13-.27.25-.53.38-.79l-93.58-9.33c-.25.24-.52.5-.77.75l93.97,9.37Z"/>
    <path class="cls-1" d="M802.19,115.51c.03-.15.07-.29.1-.44.03-.12.05-.25.08-.37l-113.01-16.28c-.11.26-.21.53-.31.79l113.14,16.3Z"/>
    <path class="cls-1" d="M728.61,46.23l95.63,3.24c.3-.27.62-.53.93-.79l-95.58-3.24c-.31.25-.64.52-.98.79Z"/>
    <path class="cls-1" d="M763.84,181.34c.19-.23.39-.47.59-.72l-120.97-26.38c-.37.21-.73.41-1.09.61l121.48,26.49Z"/>
    <path class="cls-1" d="M796.96,130.67c.12-.26.23-.52.34-.78l-111.85-20.96c-.1.26-.2.53-.3.78l111.81,20.96Z"/>
    <path class="cls-1" d="M772.48,170.38c.18-.24.36-.48.55-.73l-115.01-25.08c-.28.22-.57.44-.85.66l115.31,25.15Z"/>
    <path class="cls-1" d="M790.19,143.91c.14-.25.29-.51.43-.76l-111.88-20.97c-.16.25-.32.5-.48.75l111.93,20.98Z"/>
    <path class="cls-1" d="M781.69,157.5c.17-.25.33-.49.5-.74l-112.53-22.86c-.22.24-.44.48-.66.71l112.69,22.89Z"/>
  </g>
  <path class="cls-5" d="M644.29,165.62s46.3-15.75,60.14-59.11c13.81-43.28,47.28-67.11,47.4-67.19h-2.38s-33.57,23.84-47.41,67.19c-13.84,43.36-60.14,59.11-60.14,59.11h2.38Z"/>
  <g>
    <path class="cls-3" d="M683.3,150.19c-.09.24-.19.51-.28.78l72.44,15.8c.35-.21.7-.41,1.05-.62l-73.2-15.96Z"/>
    <path class="cls-3" d="M723.9,130.74c-.21.24-.42.49-.64.72l56.84,10.65c.12-.26.24-.51.36-.77l-56.56-10.6Z"/>
    <path class="cls-3" d="M730.42,117.44c-.08.27-.16.53-.24.8l55.26,10.36c.09-.26.17-.53.26-.79l-55.28-10.36Z"/>
    <path class="cls-3" d="M738.2,175l-55.3-12.06c.11.31.22.61.35.92l53.51,11.67c.48-.17.96-.35,1.44-.53Z"/>
    <path class="cls-3" d="M707.49,141.68c-.46.19-.93.38-1.39.56l65.18,13.24c.23-.22.45-.47.68-.71l-64.47-13.09Z"/>
    <path class="cls-3" d="M760.58,57.92l12.68,1.26c-2.54-.54-5.29-.99-8.23-1.34-1.56-.19-3.04-.15-4.45.07Z"/>
    <path class="cls-3" d="M747.1,68.25c-.16.25-.33.51-.49.78l49.06,5.64c-.09-.29-.19-.58-.29-.86l-48.28-5.55Z"/>
    <path class="cls-3" d="M737.76,90.54c-.08.27-.16.53-.24.8l55.39,9.17c.06-.27.12-.54.18-.81l-55.33-9.16Z"/>
    <path class="cls-3" d="M733.81,104.89c-.07.27-.14.54-.21.8l56.16,8.09c.07-.27.14-.54.21-.8l-56.15-8.09Z"/>
    <path class="cls-3" d="M741.56,79.43c-.1.26-.21.52-.31.79l54.36,7.7c.06-.27.12-.55.17-.81l-54.22-7.68Z"/>
  </g>
</svg>