<?xml version="1.0" encoding="UTF-8"?>
<svg id="yeux" xmlns="http://www.w3.org/2000/svg" viewBox="0 0 835.02 190.36">
  <defs>
    <style>
      .cls-1 {
        fill: #666575;
      }

      .cls-1, .cls-2 {
        fill-rule: evenodd;
      }

      .cls-2 {
        fill: #d0d1d3;
      }
    </style>
  </defs>
  <path class="cls-1" d="M702.95,54.29c-2.86-3.74-6.7-6.11-11.43-6.7-4.73-.79-8.97.39-12.81,3.15-3.85,2.96-6.11,6.71-6.8,11.43-.69,4.83.49,9.07,3.25,12.91,2.86,3.84,6.7,6.01,11.43,6.7,4.83.69,9.07-.39,12.91-3.25,3.84-2.86,6.01-6.6,6.7-11.43.69-4.73-.4-8.97-3.25-12.81ZM705.31,67.01c-.5,2.95-2.46,5.32-5.91,7.29-3.74,2.07-7.68,2.76-12.02,2.17-4.17-.52-8.04-2.47-10.94-5.52-2.85-2.86-4.04-5.62-3.64-8.57.4-2.86,2.36-4.93,5.81-6.41,3.45-1.48,7.39-1.97,11.83-1.28,4.53.59,8.18,2.17,11.03,4.53,2.95,2.37,4.24,4.93,3.84,7.78Z"/>
  <path class="cls-1" d="M742.85,52.32c-2.86-3.74-6.7-6.01-11.43-6.7-4.83-.69-9.06.49-12.81,3.25-3.74,2.86-6.01,6.7-6.71,11.53-.68,4.63.4,8.97,3.26,12.81,2.86,3.84,6.6,6.01,11.43,6.7,4.73.69,8.96-.39,12.81-3.25,3.84-2.86,6.11-6.7,6.7-11.33.69-4.83-.3-9.07-3.25-13.01ZM744.92,65.04c-.4,2.96-2.36,5.32-5.71,7.19-3.65,2.07-7.59,2.76-11.93,2.17-4.24-.59-7.78-2.46-10.74-5.42-2.76-2.76-3.94-5.62-3.54-8.47h0c.4-2.66,2.27-4.83,5.72-6.21,3.35-1.58,7.19-1.97,11.73-1.28,4.34.59,7.98,2.07,10.84,4.43,2.85,2.36,4.04,4.93,3.64,7.59Z"/>
  <path class="cls-2" d="M702.45,57.25c-2.95-2.96-6.79-4.93-11.53-5.52-4.73-.69-8.97,0-12.61,1.97-3.74,2.07-5.81,4.93-6.4,8.48-.49,3.74.69,7.29,3.64,10.74,3.05,3.64,6.8,5.81,11.43,6.5,4.63.69,8.87-.3,12.81-2.96,3.74-2.56,5.91-5.62,6.4-9.36.49-3.55-.69-6.9-3.74-9.85ZM705.31,67.01c-.5,2.95-2.46,5.32-5.91,7.29-3.74,2.07-7.68,2.76-12.02,2.17-4.17-.52-8.04-2.47-10.94-5.52-2.85-2.86-4.04-5.62-3.64-8.57.4-2.86,2.36-4.93,5.81-6.41,3.45-1.48,7.39-1.97,11.83-1.28,4.53.59,8.18,2.17,11.03,4.53,2.95,2.37,4.24,4.93,3.84,7.78Z"/>
  <path class="cls-2" d="M742.46,55.28c-2.95-2.96-6.8-4.73-11.63-5.52h0c-4.73-.69-8.97.1-12.71,2.17-3.64,2.07-5.71,4.83-6.21,8.47-.59,3.65.6,7.29,3.55,10.74,2.95,3.64,6.9,5.71,11.43,6.3,4.63.69,8.87-.3,12.81-2.95,3.74-2.47,5.91-5.52,6.4-9.16.59-3.65-.69-6.9-3.64-10.05ZM744.92,65.04c-.4,2.96-2.36,5.32-5.71,7.19-3.65,2.07-7.59,2.76-11.93,2.17-4.24-.59-7.78-2.46-10.74-5.42-2.76-2.76-3.94-5.62-3.54-8.47h0c.4-2.66,2.27-4.83,5.72-6.21,3.35-1.58,7.19-1.97,11.73-1.28,4.34.59,7.98,2.07,10.84,4.43,2.85,2.36,4.04,4.93,3.64,7.59Z"/>
</svg>